<svg xmlns="http://www.w3.org/2000/svg" width="72" height="24" viewBox="0 0 72 24">
    <g fill="none" fill-rule="evenodd">
        <path fill="#000" d="M12.959 6.274c.252 0 .457.204.457.456V16.96c0 .252-.205.456-.457.456h-1.644c-.252 0-.457-.204-.457-.456V6.73c0-.252.205-.456.457-.456zm-8.858 0c.252 0 .456.204.456.456v8.128h4.43c.251 0 .456.205.456.457v1.644c0 .252-.205.456-.457.456h-6.53c-.252 0-.456-.204-.456-.456V6.73c0-.252.204-.456.457-.456zm29.315 0c.252 0 .456.204.456.456v1.644c0 .252-.204.457-.456.457h-4.43v1.735h4.43c.252 0 .456.204.456.456v1.644c0 .252-.204.457-.456.457h-4.43v1.735h4.43c.252 0 .456.205.456.457v1.644c0 .252-.204.456-.456.456h-6.53c-.252 0-.457-.204-.457-.456V6.73c0-.252.205-.456.457-.456zM17.29 6.272l.038.002c.202 0 .384.05.506.224l4.302 6.15V6.73c0-.252.205-.456.457-.456h1.644c.252 0 .456.204.456.456V16.96c0 .252-.204.456-.456.456h-1.676c-.127-.009-.24-.07-.316-.161-.019-.02-.037-.04-.053-.064l-4.485-6.413v6.182c0 .252-.205.456-.457.456h-1.644c-.252 0-.456-.204-.456-.456V6.73c0-.252.204-.456.456-.456h1.644c.027 0 .053-.005.078 0z"/>
        <path fill="#08BF5B" d="M68.836 22H39.164C38.52 22 38 21.48 38 20.84V3.16c0-.641.521-1.16 1.164-1.16h29.672C69.48 2 70 2.519 70 3.16v17.68c0 .64-.521 1.16-1.164 1.16"/>
        <path fill="#FFF" d="M60.26 9.33c.109 0 .207.065.248.166l1.548 3.774 1.497-3.771c.04-.102.14-.17.25-.17h1.66c.114 0 .192.115.15.221l-3.46 8.72c-.041.101-.14.169-.25.169h-1.661c-.114 0-.192-.115-.15-.221l.941-2.37-2.582-6.296c-.044-.106.034-.222.149-.222zm-7.086-.183c.871 0 1.508.3 1.938.794v-.45c0-.09.072-.162.16-.162h1.629c.089 0 .161.072.161.162v6.179c0 .09-.072.161-.161.161h-1.628c-.09 0-.161-.072-.161-.161v-.45c-.43.494-1.067.793-1.938.793-1.704 0-3.108-1.495-3.108-3.433 0-1.937 1.404-3.433 3.108-3.433zM46.151 6.73c1.794 0 3.186 1.391 3.186 3.12 0 1.73-1.392 3.121-3.186 3.121h-1.366v2.555c0 .169-.137.306-.306.306h-1.468c-.17 0-.306-.137-.306-.306v-8.49c0-.17.137-.306.306-.306h3.14zm7.413 4.265c-.897 0-1.547.611-1.547 1.586 0 .976.65 1.587 1.547 1.587.897 0 1.548-.611 1.548-1.587 0-.975-.65-1.586-1.548-1.586zm-7.413-2.315h-1.366v2.34h1.366c.637 0 1.105-.506 1.105-1.17 0-.663-.468-1.17-1.105-1.17z"/>
    </g>
</svg>
